<svg width="128" height="128" viewBox="0 0 128 128" fill="none" xmlns="http://www.w3.org/2000/svg">
<g filter="url(#filter0_d_241_213)">
<path fill-rule="evenodd" clip-rule="evenodd" d="M51.9595 18.0497H102.434L90.3274 37.7236C87.9279 35.256 85.1388 33.0848 81.9871 31.3063C80.2403 30.3206 78.4472 29.4923 76.6242 28.8169C67.4884 33.5059 59.0369 43.1035 56.9255 45.6045C56.6071 45.9816 56.6629 46.396 57.1564 46.4115C57.5871 46.4251 58.2035 46.3987 59.0031 46.3645C62.8958 46.1979 71.128 45.8455 83.3791 49.0145L82.7199 50.0858C79.5948 49.2439 77.0806 48.7369 75.8756 48.5121C75.3919 48.4219 75.0591 48.6741 75.2882 49.1096C75.4883 49.4903 75.8152 50.0128 76.2392 50.6907C76.9846 51.8824 78.0304 53.5544 79.2162 55.7793L64.066 80.3983C56.9684 80.4963 44.9118 79.5881 28.1757 73.014L28.1445 73.0806C30.7449 82.5011 37.0763 90.8762 46.4091 95.8255C48.1812 96.7652 49.9954 97.5464 51.8355 98.1741C52.5168 97.8016 53.1935 97.4011 53.8632 96.978L46.44 109.041C30.8646 106.415 19 92.8635 19 76.5413V51.0092C19 32.8062 33.7565 18.0497 51.9595 18.0497ZM73.9381 27.9352C64.5026 25.3063 54.0438 26.4056 44.9835 31.8353C43.2632 32.8662 41.6574 34.0149 40.1702 35.2647C39.7635 45.5042 43.9773 57.567 45.1199 60.6311C45.2922 61.0932 45.6813 61.2487 45.9379 60.828C46.1618 60.4608 46.4424 59.9126 46.8063 59.2016C49.272 54.384 55.5635 42.0914 73.9793 27.9961L73.9381 27.9352ZM37.8338 37.2946C30.8935 44.1908 26.7027 53.8109 26.9794 64.3494C27.032 66.3505 27.2436 68.31 27.602 70.2164C36.3405 75.6137 48.9482 77.8955 52.1791 78.4113C52.665 78.4889 52.9911 78.2281 52.7507 77.7987C52.5406 77.4235 52.2002 76.9097 51.7585 76.2431C48.7685 71.7304 41.1393 60.2158 37.9074 37.2888L37.8338 37.2946Z" fill="black"/>
</g>
<path d="M45.9246 116L109.192 12" stroke="black" stroke-width="1.20826" stroke-linecap="round"/>
<defs>
<filter id="filter0_d_241_213" x="17.0366" y="17.2945" width="86.153" height="93.7096" filterUnits="userSpaceOnUse" color-interpolation-filters="sRGB">
<feFlood flood-opacity="0" result="BackgroundImageFix"/>
<feColorMatrix in="SourceAlpha" type="matrix" values="0 0 0 0 0 0 0 0 0 0 0 0 0 0 0 0 0 0 127 0" result="hardAlpha"/>
<feOffset dx="-0.60413" dy="0.60413"/>
<feGaussianBlur stdDeviation="0.679646"/>
<feComposite in2="hardAlpha" operator="out"/>
<feColorMatrix type="matrix" values="0 0 0 0 0 0 0 0 0 0 0 0 0 0 0 0 0 0 0.375 0"/>
<feBlend mode="normal" in2="BackgroundImageFix" result="effect1_dropShadow_241_213"/>
<feBlend mode="normal" in="SourceGraphic" in2="effect1_dropShadow_241_213" result="shape"/>
</filter>
</defs>
</svg>
