<svg width="48" height="48" viewBox="0 0 48 48" fill="none" xmlns="http://www.w3.org/2000/svg">
<path d="M32.1756 8.39871L28.5583 6.4996C25.3822 4.8338 23.7942 4 22.0868 4C20.3794 4 18.7914 4.83199 15.6154 6.4996L15.0348 6.80527L31.1736 16.0277L38.4373 12.3923C37.2689 11.0683 35.3842 10.079 32.1756 8.3951M39.7178 14.787L32.4867 18.4043V23.8955C32.4867 24.2553 32.3438 24.6003 32.0894 24.8547C31.835 25.1091 31.49 25.252 31.1302 25.252C30.7705 25.252 30.4254 25.1091 30.171 24.8547C29.9166 24.6003 29.7737 24.2553 29.7737 23.8955V19.7609L23.4433 22.926V40C24.742 39.6762 26.2197 38.9021 28.5583 37.674L32.1756 35.7749C36.0661 33.7329 38.0123 32.7128 39.0939 30.877C40.1736 29.043 40.1736 26.7586 40.1736 22.1953V21.9837C40.1736 18.5599 40.1736 16.4184 39.7178 14.787ZM20.7303 40V22.926L4.45579 14.787C4 16.4184 4 18.5599 4 21.9801V22.1917C4 26.7586 4 29.043 5.07978 30.877C6.16137 32.7128 8.10752 33.7347 11.998 35.7767L15.6154 37.674C17.954 38.9021 19.4317 39.6762 20.7303 40ZM5.73633 12.3941L22.0868 20.5693L28.2562 17.4855L12.1843 8.30104L11.998 8.39871C8.7912 10.0808 6.90474 11.0701 5.73633 12.3959" fill="black"/>
</svg>
