<svg width="48" height="48" viewBox="0 0 48 48" fill="none" xmlns="http://www.w3.org/2000/svg">
<path d="M32.6438 28.0519C32.6438 29.6269 33.0919 30.255 34.2638 30.255C36.8756 30.255 38.5388 26.9269 38.5388 21.3919C38.5388 12.9319 32.3738 8.88187 24.6769 8.88187C16.7588 8.88187 9.55688 14.1919 9.55688 24.2269C9.55688 33.8119 15.8569 39.0319 25.5319 39.0319C28.8169 39.0319 31.0219 38.6719 34.395 37.5469L35.1188 40.56C31.7888 41.6419 28.23 41.955 25.4869 41.955C12.7969 41.955 6 34.98 6 24.225C6 13.38 13.8769 6 24.7219 6C36.0169 6 42 12.75 42 21.03C42 28.05 39.7969 33.405 32.8669 33.405C29.715 33.405 27.6469 32.145 27.3769 29.3531C26.5669 32.4581 24.4069 33.405 21.48 33.405C17.565 33.405 14.28 30.3881 14.28 24.315C14.28 18.195 17.1619 14.415 22.3369 14.415C25.0819 14.415 26.7919 15.495 27.5531 17.205L28.86 14.82H32.64V28.0519H32.6438V28.0519ZM27.1106 22.1119C27.1106 19.6387 25.2638 18.6019 23.7338 18.6019C22.0688 18.6019 20.2256 19.95 20.2256 23.9119C20.2256 27.0619 21.6206 28.8169 23.7338 28.8169C25.2188 28.8169 27.1106 27.8719 27.1106 25.2619V22.1119Z" fill="black"/>
</svg>
