<svg width="49" height="48" viewBox="0 0 49 48" fill="none" xmlns="http://www.w3.org/2000/svg">
<path d="M24.4999 17.5C22.776 17.5 21.1227 18.1848 19.9037 19.4038C18.6848 20.6228 17.9999 22.2761 17.9999 24C17.9999 25.7239 18.6848 27.3772 19.9037 28.5962C21.1227 29.8152 22.776 30.5 24.4999 30.5C26.2238 30.5 27.8771 29.8152 29.0961 28.5962C30.3151 27.3772 30.9999 25.7239 30.9999 24C30.9999 22.2761 30.3151 20.6228 29.0961 19.4038C27.8771 18.1848 26.2238 17.5 24.4999 17.5Z" fill="black"/>
<path fill-rule="evenodd" clip-rule="evenodd" d="M14.0399 6.16401C20.992 5.39341 28.0079 5.39341 34.9599 6.16401C38.7579 6.58801 41.8199 9.57801 42.2659 13.39C43.0904 20.4393 43.0904 27.5607 42.2659 34.61C41.8199 38.422 38.7579 41.412 34.9619 41.838C28.0092 42.6088 20.9926 42.6088 14.0399 41.838C10.2419 41.412 7.17995 38.422 6.73395 34.612C5.9094 27.562 5.9094 20.44 6.73395 13.39C7.17995 9.57801 10.2419 6.58801 14.0399 6.16401ZM34.4999 12C33.9695 12 33.4608 12.2107 33.0857 12.5858C32.7107 12.9609 32.4999 13.4696 32.4999 14C32.4999 14.5304 32.7107 15.0391 33.0857 15.4142C33.4608 15.7893 33.9695 16 34.4999 16C35.0304 16 35.5391 15.7893 35.9142 15.4142C36.2892 15.0391 36.4999 14.5304 36.4999 14C36.4999 13.4696 36.2892 12.9609 35.9142 12.5858C35.5391 12.2107 35.0304 12 34.4999 12ZM14.9999 24C14.9999 21.4805 16.0008 19.0641 17.7824 17.2825C19.564 15.5009 21.9804 14.5 24.4999 14.5C27.0195 14.5 29.4359 15.5009 31.2175 17.2825C32.9991 19.0641 33.9999 21.4805 33.9999 24C33.9999 26.5196 32.9991 28.9359 31.2175 30.7175C29.4359 32.4991 27.0195 33.5 24.4999 33.5C21.9804 33.5 19.564 32.4991 17.7824 30.7175C16.0008 28.9359 14.9999 26.5196 14.9999 24Z" fill="black"/>
</svg>
