<svg width="128" height="128" viewBox="0 0 128 128" fill="none" xmlns="http://www.w3.org/2000/svg">
<g filter="url(#filter0_d_241_213)">
<path fill-rule="evenodd" clip-rule="evenodd" d="M52.9391 22.7825H98.3224L87.4367 40.4718C85.2792 38.2532 82.7715 36.3009 79.9377 34.7019C78.3671 33.8156 76.7548 33.0709 75.1158 32.4635C66.9016 36.6796 59.3025 45.309 57.4041 47.5577C57.1178 47.8968 57.168 48.2694 57.6118 48.2834C57.999 48.2956 58.5533 48.2718 59.2721 48.2411C62.7722 48.0912 70.174 47.7744 81.1893 50.6238L80.5966 51.5869C77.7867 50.83 75.5261 50.3742 74.4427 50.1721C74.0078 50.0909 73.7086 50.3177 73.9145 50.7093C74.0945 51.0515 74.3884 51.5214 74.7696 52.1309C75.4398 53.2024 76.3801 54.7057 77.4463 56.7062L63.8244 78.8418C57.4427 78.9299 46.6024 78.1133 31.5544 72.2023L31.5264 72.2622C33.8645 80.7324 39.5572 88.2627 47.9486 92.7127C49.5419 93.5577 51.1732 94.2601 52.8276 94.8244C53.4402 94.4895 54.0486 94.1294 54.6507 93.749L47.9764 104.595C33.9722 102.234 23.3044 90.0496 23.3044 75.3738V52.4173C23.3044 36.0504 36.5723 22.7825 52.9391 22.7825ZM72.7006 31.6708C64.2169 29.3071 54.8132 30.2955 46.6668 35.1775C45.12 36.1044 43.6762 37.1372 42.3391 38.261C41.9733 47.4676 45.7621 58.3135 46.7895 61.0686C46.9444 61.484 47.2942 61.6239 47.5249 61.2455C47.7263 60.9154 47.9785 60.4225 48.3057 59.7833C50.5227 55.4516 56.1795 44.399 72.7377 31.7256L72.7006 31.6708ZM40.2383 40.0861C33.9981 46.2866 30.2301 54.9363 30.4789 64.4118C30.5261 66.211 30.7164 67.9729 31.0386 69.687C38.8957 74.5398 50.2315 76.5914 53.1365 77.0552C53.5734 77.125 53.8666 76.8905 53.6504 76.5044C53.4616 76.167 53.1555 75.705 52.7584 75.1057C50.07 71.0482 43.2104 60.6951 40.3045 40.0809L40.2383 40.0861Z" fill="black"/>
</g>
<path d="M47.5129 110.852L104.398 17.3431" stroke="black" stroke-width="1.20826" stroke-linecap="round"/>
<defs>
<filter id="filter0_d_241_213" x="21.3409" y="22.0273" width="77.7367" height="84.531" filterUnits="userSpaceOnUse" color-interpolation-filters="sRGB">
<feFlood flood-opacity="0" result="BackgroundImageFix"/>
<feColorMatrix in="SourceAlpha" type="matrix" values="0 0 0 0 0 0 0 0 0 0 0 0 0 0 0 0 0 0 127 0" result="hardAlpha"/>
<feOffset dx="-0.60413" dy="0.60413"/>
<feGaussianBlur stdDeviation="0.679646"/>
<feComposite in2="hardAlpha" operator="out"/>
<feColorMatrix type="matrix" values="0 0 0 0 0 0 0 0 0 0 0 0 0 0 0 0 0 0 0.375 0"/>
<feBlend mode="normal" in2="BackgroundImageFix" result="effect1_dropShadow_241_213"/>
<feBlend mode="normal" in="SourceGraphic" in2="effect1_dropShadow_241_213" result="shape"/>
</filter>
</defs>
</svg>
