<svg width="130" height="128" viewBox="0 0 130 128" fill="none" xmlns="http://www.w3.org/2000/svg">
<g filter="url(#filter0_d_33_2807)">
<path fill-rule="evenodd" clip-rule="evenodd" d="M26.7327 34.171H59.5765L51.6985 46.9727C50.1372 45.3671 48.3223 43.9543 46.2715 42.7971C45.1349 42.1557 43.9681 41.6167 42.7819 41.1772C36.8373 44.2283 31.3379 50.4734 29.964 52.1008C29.7569 52.3462 29.7932 52.6158 30.1143 52.6259C30.3945 52.6348 30.7957 52.6176 31.3159 52.5953C33.8489 52.4869 39.2056 52.2576 47.1773 54.3197L46.7484 55.0167C44.7148 54.4689 43.0789 54.1391 42.2948 53.9928C41.9801 53.9341 41.7635 54.0982 41.9126 54.3816C42.0428 54.6292 42.2555 54.9693 42.5314 55.4104C43.0164 56.1858 43.6969 57.2738 44.4685 58.7215L34.6104 74.741C29.992 74.8047 22.1468 74.2138 11.2567 69.936L11.2364 69.9794C12.9285 76.1093 17.0483 81.5589 23.1211 84.7794C24.2742 85.3908 25.4547 85.8992 26.652 86.3076C27.0953 86.0652 27.5356 85.8046 27.9714 85.5293L23.1412 93.3784C13.0064 91.6696 5.28613 82.852 5.28613 72.2312V55.6176C5.28613 43.773 14.8881 34.171 26.7327 34.171ZM41.0341 40.6035C34.8944 38.8929 28.089 39.6082 22.1935 43.1412C21.0741 43.8121 20.0292 44.5595 19.0615 45.3728C18.7968 52.0356 21.5387 59.8847 22.2823 61.8786C22.3944 62.1792 22.6475 62.2804 22.8145 62.0066C22.9602 61.7677 23.1428 61.411 23.3795 60.9484C24.984 57.8136 29.0778 49.8149 41.0609 40.6431L41.0341 40.6035ZM17.5412 46.6936C13.0252 51.1809 10.2983 57.4407 10.4783 64.298C10.5125 65.6001 10.6502 66.8752 10.8834 68.1157C16.5695 71.6276 24.7732 73.1124 26.8756 73.4481C27.1918 73.4985 27.4039 73.3288 27.2475 73.0494C27.1108 72.8053 26.8893 72.4709 26.6019 72.0372C24.6564 69.1008 19.6921 61.6083 17.5891 46.6899L17.5412 46.6936Z" fill="black"/>
</g>
<path d="M22.8058 97.9067L63.9734 30.2345" stroke="black" stroke-width="1.20826" stroke-linecap="round"/>
<path d="M45.4487 82.388L51.4568 64.2006H55.8337L61.8146 82.388L61.4612 82.9589H59.1504L57.7367 78.5004H49.5538L48.1129 82.9589H45.8293L45.4487 82.388ZM50.3421 75.9993H56.9483L53.9307 66.7017H53.3598L50.3421 75.9993ZM64.3333 82.9589V70.4534C64.9676 69.3297 66.1729 68.7679 67.949 68.7679H70.7492L71.9997 69.6922V71.0786H68.4655C67.7587 71.0786 67.2603 71.2599 66.9703 71.6224V82.9589H64.3333ZM77.9825 82.9589C75.1914 82.9589 73.7959 81.5724 73.7959 78.7994C73.7959 76.0265 75.1914 74.64 77.9825 74.64H82.5769V72.6554C82.5769 71.6042 82.0513 71.0786 81.0001 71.0786H75.1824V69.6922L76.4329 68.7679H81.0545C83.8275 68.7679 85.2139 70.1543 85.2139 72.9273V82.9589H77.9825ZM76.4329 79.0441C76.4329 80.1134 76.9676 80.6481 78.0369 80.6481H82.5769V76.7061H78.0369C76.9676 76.7061 76.4329 77.2408 76.4329 78.3101V79.0441ZM89.2359 78.7722V64.2006H91.873V68.7679H96.9024V71.0786H91.873V79.0441C91.873 80.1134 92.4076 80.6481 93.4769 80.6481H97.1742V82.0345L95.9237 82.9589H93.3954C90.6224 82.9589 89.2359 81.5633 89.2359 78.7722ZM100.174 82.9589V70.4534C100.808 69.3297 102.014 68.7679 103.79 68.7679H106.59L107.84 69.6922V71.0786H104.306C103.599 71.0786 103.101 71.2599 102.811 71.6224V82.9589H100.174ZM110.555 66.2124V63.3307H113.382V66.2124H110.555ZM110.663 82.9589V68.7679H113.3V82.9589H110.663ZM117.539 82.9589V62.8413H120.176V75.4284L126.266 68.7679H128.849L129.066 69.23L124.037 74.6944L129.447 82.4967L129.229 82.9589H126.647L122.297 76.5974L120.176 78.9082V82.9589H117.539Z" fill="black"/>
<path d="M63.0107 56.8762V48.5392H66.9618C68.1942 48.5392 68.8104 49.1554 68.8104 50.3879V51.9586C68.8104 53.191 68.1942 53.8072 66.9618 53.8072H64.0257V56.8762H63.0107ZM64.0257 52.889H66.9738C67.5216 52.889 67.7955 52.6151 67.7955 52.0673V50.2791C67.7955 49.7314 67.5216 49.4575 66.9738 49.4575H64.0257V52.889ZM70.5005 56.8762V47.9351H71.4671V50.5933H73.8837C75.0919 50.5933 75.6961 51.1974 75.6961 52.4057V56.8762H74.7294V52.2848C74.7294 51.721 74.4475 51.4391 73.8837 51.4391H71.4671V56.8762H70.5005ZM77.4835 55.0638V52.4057C77.4835 51.1974 78.0877 50.5933 79.2959 50.5933H80.9875C82.1957 50.5933 82.7999 51.1974 82.7999 52.4057V55.0638C82.7999 56.2721 82.1957 56.8762 80.9875 56.8762H79.2959C78.0877 56.8762 77.4835 56.2721 77.4835 55.0638ZM78.4501 55.1847C78.4501 55.7485 78.7321 56.0304 79.2959 56.0304H80.9875C81.5513 56.0304 81.8333 55.7485 81.8333 55.1847V52.2848C81.8333 51.721 81.5513 51.4391 80.9875 51.4391H79.2959C78.7321 51.4391 78.4501 51.721 78.4501 52.2848V55.1847ZM84.5879 55.0638V48.5392H85.5545V50.5933H87.8502V51.4391H85.5545V55.1847C85.5545 55.7485 85.8364 56.0304 86.4003 56.0304H87.971V56.5137L87.4877 56.8762H86.4003C85.192 56.8762 84.5879 56.2721 84.5879 55.0638ZM89.2711 55.0638V52.4057C89.2711 51.1974 89.8753 50.5933 91.0835 50.5933H92.7751C93.9833 50.5933 94.5875 51.1974 94.5875 52.4057V55.0638C94.5875 56.2721 93.9833 56.8762 92.7751 56.8762H91.0835C89.8753 56.8762 89.2711 56.2721 89.2711 55.0638ZM90.2377 55.1847C90.2377 55.7485 90.5197 56.0304 91.0835 56.0304H92.7751C93.3389 56.0304 93.6209 55.7485 93.6209 55.1847V52.2848C93.6209 51.721 93.3389 51.4391 92.7751 51.4391H91.0835C90.5197 51.4391 90.2377 51.721 90.2377 52.2848V55.1847ZM96.1822 56.5137V56.0304H98.9733C99.5291 56.0304 99.807 55.7485 99.807 55.1847C99.807 54.6127 99.5855 54.2905 99.1424 54.218L97.7046 53.9764C96.6897 53.8072 96.1822 53.2555 96.1822 52.3211C96.1822 51.1692 96.7863 50.5933 97.9946 50.5933H100.012L100.496 50.9557V51.4391H97.9825C97.4186 51.4391 97.1367 51.721 97.1367 52.2848C97.1367 52.7923 97.3743 53.0863 97.8496 53.1669L99.2874 53.4085C100.286 53.5696 100.786 54.1456 100.786 55.1363C100.786 56.2963 100.173 56.8762 98.9491 56.8762H96.6655L96.1822 56.5137ZM105.368 56.8762V47.9351H106.334V50.5933H108.751C109.959 50.5933 110.563 51.1974 110.563 52.4057V55.0638C110.563 56.2721 109.959 56.8762 108.751 56.8762H105.368ZM106.334 56.0304H108.751C109.315 56.0304 109.597 55.7485 109.597 55.1847V52.2848C109.597 51.721 109.315 51.4391 108.751 51.4391H106.334V56.0304ZM111.675 50.7624L111.784 50.5933H112.618L114.454 56.0304H114.696L116.532 50.5933H117.366L117.475 50.7624L114.527 59.2927H113.693L113.584 59.1236L114.394 56.8762H113.79L111.675 50.7624Z" fill="black"/>
<defs>
<filter id="filter0_d_33_2807" x="3.32271" y="33.4159" width="57.009" height="61.926" filterUnits="userSpaceOnUse" color-interpolation-filters="sRGB">
<feFlood flood-opacity="0" result="BackgroundImageFix"/>
<feColorMatrix in="SourceAlpha" type="matrix" values="0 0 0 0 0 0 0 0 0 0 0 0 0 0 0 0 0 0 127 0" result="hardAlpha"/>
<feOffset dx="-0.60413" dy="0.60413"/>
<feGaussianBlur stdDeviation="0.679646"/>
<feComposite in2="hardAlpha" operator="out"/>
<feColorMatrix type="matrix" values="0 0 0 0 0 0 0 0 0 0 0 0 0 0 0 0 0 0 0.375 0"/>
<feBlend mode="normal" in2="BackgroundImageFix" result="effect1_dropShadow_33_2807"/>
<feBlend mode="normal" in="SourceGraphic" in2="effect1_dropShadow_33_2807" result="shape"/>
</filter>
</defs>
</svg>
