<svg width="128" height="128" viewBox="0 0 128 128" fill="black" xmlns="http://www.w3.org/2000/svg">
<g filter="url(#filter0_d_33_2807)">
<path fill-rule="evenodd" clip-rule="evenodd" d="M26.7327 34.171H59.5765L51.6985 46.9727C50.1372 45.3671 48.3223 43.9543 46.2715 42.7971C45.1349 42.1557 43.9681 41.6167 42.7819 41.1772C36.8373 44.2283 31.3379 50.4734 29.964 52.1008C29.7569 52.3462 29.7932 52.6158 30.1143 52.6259C30.3945 52.6348 30.7957 52.6176 31.3159 52.5953C33.8489 52.4869 39.2056 52.2576 47.1773 54.3197L46.7484 55.0167C44.7148 54.4689 43.0789 54.1391 42.2948 53.9928C41.9801 53.9341 41.7635 54.0982 41.9126 54.3816C42.0428 54.6292 42.2555 54.9693 42.5314 55.4104C43.0164 56.1858 43.6969 57.2738 44.4685 58.7215L34.6104 74.741C29.992 74.8047 22.1468 74.2138 11.2567 69.936L11.2364 69.9794C12.9285 76.1093 17.0483 81.5589 23.1211 84.7794C24.2742 85.3908 25.4547 85.8992 26.652 86.3076C27.0953 86.0652 27.5356 85.8046 27.9714 85.5293L23.1412 93.3784C13.0064 91.6696 5.28613 82.852 5.28613 72.2312V55.6176C5.28613 43.773 14.8881 34.171 26.7327 34.171ZM41.0341 40.6035C34.8944 38.8929 28.089 39.6082 22.1935 43.1412C21.0741 43.8121 20.0292 44.5595 19.0615 45.3728C18.7968 52.0356 21.5387 59.8847 22.2823 61.8786C22.3944 62.1792 22.6475 62.2804 22.8145 62.0066C22.9602 61.7677 23.1428 61.411 23.3795 60.9484C24.984 57.8136 29.0778 49.8149 41.0609 40.6431L41.0341 40.6035ZM17.5412 46.6936C13.0252 51.1809 10.2983 57.4407 10.4783 64.298C10.5125 65.6001 10.6502 66.8752 10.8834 68.1157C16.5695 71.6276 24.7732 73.1124 26.8756 73.4481C27.1918 73.4985 27.4039 73.3288 27.2475 73.0494C27.1108 72.8053 26.8893 72.4709 26.6019 72.0372C24.6564 69.1008 19.6921 61.6083 17.5891 46.6899L17.5412 46.6936Z" fill="inherit"/>
</g>
<path d="M22.8058 97.9067L63.9734 30.2345" stroke="inherit" stroke-width="1.20826" stroke-linecap="round"/>
<path d="M47.76 84.8762V71.0762H54.34C56.4333 71.0762 57.48 72.1296 57.48 74.2362V76.8562C57.48 78.9496 56.4333 79.9962 54.34 79.9962H49.78V84.8762H47.76ZM49.78 78.1562H54.32C55.08 78.1562 55.46 77.7762 55.46 77.0162V74.0362C55.46 73.2896 55.08 72.9162 54.32 72.9162H49.78V78.1562ZM60.1167 72.5562V70.4362H62.1967V72.5562H60.1167ZM60.1967 84.8762V74.4362H62.1367V84.8762H60.1967ZM65.0953 81.7962V77.4962C65.0953 75.4562 66.1153 74.4362 68.1553 74.4362H72.0153L72.9353 75.1162V76.1362H68.2153C67.4286 76.1362 67.0353 76.5229 67.0353 77.2962V81.9962C67.0353 82.7829 67.4286 83.1762 68.2153 83.1762H72.9353V84.1962L72.0153 84.8762H68.1553C66.1153 84.8762 65.0953 83.8496 65.0953 81.7962ZM75.3316 81.7962V71.0762H77.2716V74.4362H80.9716V76.1362H77.2716V81.9962C77.2716 82.7829 77.6649 83.1762 78.4516 83.1762H81.1716V84.1962L80.2516 84.8762H78.3916C76.3516 84.8762 75.3316 83.8496 75.3316 81.7962ZM83.3784 81.7962V74.4362H85.3184V81.9962C85.3184 82.7829 85.7118 83.1762 86.4984 83.1762H90.1584V74.4362H92.0984V84.8762H86.4384C84.3984 84.8762 83.3784 83.8496 83.3784 81.7962ZM95.1363 84.8762V75.6762C95.6029 74.8496 96.4896 74.4362 97.7963 74.4362H99.8563L100.776 75.1162V76.1362H98.1763C97.6563 76.1362 97.2896 76.2696 97.0763 76.5362V84.8762H95.1363ZM102.693 81.7962V77.4962C102.693 75.4562 103.713 74.4362 105.753 74.4362H108.353C110.393 74.4362 111.413 75.4562 111.413 77.4962V80.3762H104.633V81.9962C104.633 82.7829 105.026 83.1762 105.813 83.1762H111.013V84.1962L110.113 84.8762H105.753C103.713 84.8762 102.693 83.8496 102.693 81.7962ZM104.633 78.8562H109.473V77.2962C109.473 76.5229 109.086 76.1362 108.313 76.1362H105.813C105.026 76.1362 104.633 76.5229 104.633 77.2962V78.8562ZM113.976 84.1962V83.1762H118.596C119.383 83.1762 119.776 82.7762 119.776 81.9762C119.776 81.1496 119.456 80.6829 118.816 80.5762L116.516 80.1962C114.823 79.9029 113.976 78.9696 113.976 77.3962C113.976 75.4229 115.003 74.4362 117.056 74.4362H120.316L121.236 75.1162V76.1362H117.096C116.296 76.1362 115.896 76.5362 115.896 77.3362C115.896 78.0829 116.23 78.5162 116.896 78.6362L119.216 79.0162C120.883 79.2962 121.716 80.2562 121.716 81.8962C121.716 83.8829 120.683 84.8762 118.616 84.8762H114.896L113.976 84.1962Z" fill="inherit"/>
<path d="M58.0107 62.8762V54.5392H61.9618C63.1942 54.5392 63.8104 55.1554 63.8104 56.3879V57.717C63.8104 58.7641 63.3633 59.3602 62.4692 59.5052L64.052 62.6346L63.9191 62.8762H63.0613L61.3818 59.5656H59.0257V62.8762H58.0107ZM59.0257 58.6473H61.9738C62.5216 58.6473 62.7955 58.3734 62.7955 57.8257V56.2791C62.7955 55.7314 62.5216 55.4575 61.9738 55.4575H59.0257V58.6473ZM65.5219 61.0638V58.4057C65.5219 57.1974 66.126 56.5933 67.3343 56.5933H68.905C70.1133 56.5933 70.7174 57.1974 70.7174 58.4057V60.1093H66.4885V61.1847C66.4885 61.7485 66.7704 62.0304 67.3343 62.0304H70.4757V62.5137L69.9924 62.8762H67.3343C66.126 62.8762 65.5219 62.2721 65.5219 61.0638ZM66.4885 59.3239H69.7508V58.2848C69.7508 57.721 69.4689 57.4391 68.905 57.4391H67.3343C66.7704 57.4391 66.4885 57.721 66.4885 58.2848V59.3239ZM72.4599 61.0638V58.4057C72.4599 57.1974 73.0641 56.5933 74.2723 56.5933H76.6888V53.9351H77.6554V62.8762H74.2723C73.0641 62.8762 72.4599 62.2721 72.4599 61.0638ZM73.4265 61.1847C73.4265 61.7485 73.7085 62.0304 74.2723 62.0304H76.6888V57.4391H74.2723C73.7085 57.4391 73.4265 57.721 73.4265 58.2848V61.1847ZM82.4917 61.0276V56.3879C82.4917 55.1554 83.1079 54.5392 84.3403 54.5392H87.7476L88.2913 54.9621V55.4575H84.3282C83.7805 55.4575 83.5066 55.7314 83.5066 56.2791V61.1363C83.5066 61.6841 83.7805 61.9579 84.3282 61.9579H88.2913V62.4533L87.7476 62.8762H84.3403C83.1079 62.8762 82.4917 62.26 82.4917 61.0276ZM91.3525 62.8762C90.1362 62.8762 89.528 62.2681 89.528 61.0517C89.528 59.8354 90.1362 59.2273 91.3525 59.2273H93.5636V58.2848C93.5636 57.721 93.2817 57.4391 92.7178 57.4391H90.1321V56.9557L90.6154 56.5933H92.7178C93.9261 56.5933 94.5302 57.1974 94.5302 58.4057V62.8762H91.3525ZM90.4946 61.1847C90.4946 61.7485 90.7765 62.0304 91.3404 62.0304H93.5636V60.0126H91.3404C90.7765 60.0126 90.4946 60.2946 90.4946 60.8584V61.1847ZM96.3667 61.0638V54.5392H97.3333V56.5933H99.629V57.4391H97.3333V61.1847C97.3333 61.7485 97.6152 62.0304 98.1791 62.0304H99.7498V62.5137L99.2665 62.8762H98.1791C96.9708 62.8762 96.3667 62.2721 96.3667 61.0638Z" fill="inherit"/>
<defs>
<filter id="filter0_d_33_2807" x="3.32271" y="33.4159" width="57.009" height="61.926" filterUnits="userSpaceOnUse" color-interpolation-filters="sRGB">
<feFlood flood-opacity="0" result="BackgroundImageFix"/>
<feColorMatrix in="SourceAlpha" type="matrix" values="0 0 0 0 0 0 0 0 0 0 0 0 0 0 0 0 0 0 127 0" result="hardAlpha"/>
<feOffset dx="-0.60413" dy="0.60413"/>
<feGaussianBlur stdDeviation="0.679646"/>
<feComposite in2="hardAlpha" operator="out"/>
<feColorMatrix type="matrix" values="0 0 0 0 0 0 0 0 0 0 0 0 0 0 0 0 0 0 0.375 0"/>
<feBlend mode="normal" in2="BackgroundImageFix" result="effect1_dropShadow_33_2807"/>
<feBlend mode="normal" in="SourceGraphic" in2="effect1_dropShadow_33_2807" result="shape"/>
</filter>
</defs>
</svg>
