<svg width="128" height="128" viewBox="0 0 128 128" fill="none" xmlns="http://www.w3.org/2000/svg">
<g filter="url(#filter0_d_538_761)">
<path fill-rule="evenodd" clip-rule="evenodd" d="M26.7327 34.171H59.5765L51.6985 46.9727C50.1372 45.3671 48.3223 43.9543 46.2715 42.7971C45.1349 42.1557 43.9681 41.6167 42.7819 41.1772C36.8373 44.2283 31.3379 50.4734 29.964 52.1008C29.7569 52.3462 29.7932 52.6158 30.1143 52.6259C30.3945 52.6348 30.7957 52.6176 31.3159 52.5953C33.8489 52.4869 39.2056 52.2576 47.1773 54.3197L46.7484 55.0167C44.7148 54.4689 43.0789 54.1391 42.2948 53.9928C41.9801 53.9341 41.7635 54.0982 41.9126 54.3816C42.0428 54.6292 42.2555 54.9693 42.5314 55.4104C43.0164 56.1858 43.6969 57.2738 44.4685 58.7215L34.6104 74.741C29.992 74.8047 22.1468 74.2138 11.2567 69.936L11.2364 69.9794C12.9285 76.1093 17.0483 81.5589 23.1211 84.7794C24.2742 85.3908 25.4547 85.8992 26.652 86.3076C27.0953 86.0652 27.5356 85.8046 27.9714 85.5293L23.1412 93.3784C13.0064 91.6696 5.28613 82.852 5.28613 72.2312V55.6176C5.28613 43.773 14.8881 34.171 26.7327 34.171ZM41.0341 40.6035C34.8944 38.8929 28.089 39.6082 22.1935 43.1412C21.0741 43.8121 20.0292 44.5595 19.0615 45.3728C18.7968 52.0356 21.5387 59.8847 22.2823 61.8786C22.3944 62.1792 22.6475 62.2804 22.8145 62.0066C22.9602 61.7677 23.1428 61.411 23.3795 60.9484C24.984 57.8136 29.0778 49.8149 41.0609 40.6431L41.0341 40.6035ZM17.5412 46.6936C13.0252 51.1809 10.2983 57.4407 10.4783 64.298C10.5125 65.6001 10.6502 66.8752 10.8834 68.1157C16.5695 71.6276 24.7732 73.1124 26.8756 73.4481C27.1918 73.4985 27.4039 73.3288 27.2475 73.0494C27.1108 72.8053 26.8893 72.4709 26.6019 72.0372C24.6564 69.1008 19.6921 61.6083 17.5891 46.6899L17.5412 46.6936Z" fill="black"/>
</g>
<path d="M22.8058 97.9067L63.9734 30.2345" stroke="black" stroke-width="1.20826" stroke-linecap="round"/>
<path fill-rule="evenodd" clip-rule="evenodd" d="M47.76 84.8762V71.0762H54.34C56.4333 71.0762 57.48 72.1295 57.48 74.2362V76.8562C57.48 78.9495 56.4333 79.9962 54.34 79.9962H49.78V84.8762H47.76ZM49.78 78.1562H54.32C55.08 78.1562 55.46 77.7762 55.46 77.0162V74.0362C55.46 73.2895 55.08 72.9162 54.32 72.9162H49.78V78.1562Z" fill="black"/>
<path d="M60.1167 70.4362V72.5562H62.1967V70.4362H60.1167Z" fill="black"/>
<path d="M60.1967 74.4362V84.8762H62.1367V74.4362H60.1967Z" fill="black"/>
<path d="M65.0953 77.4962V81.7962C65.0953 83.8495 66.1153 84.8762 68.1553 84.8762H72.0153L72.9353 84.1962V83.1762H68.2153C67.4286 83.1762 67.0353 82.7828 67.0353 81.9962V77.2962C67.0353 76.5228 67.4286 76.1362 68.2153 76.1362H72.9353V75.1162L72.0153 74.4362H68.1553C66.1153 74.4362 65.0953 75.4562 65.0953 77.4962Z" fill="black"/>
<path d="M75.3316 71.0762V81.7962C75.3316 83.8495 76.3516 84.8762 78.3916 84.8762H80.2516L81.1716 84.1962V83.1762H78.4516C77.6649 83.1762 77.2716 82.7828 77.2716 81.9962V76.1362H80.9716V74.4362H77.2716V71.0762H75.3316Z" fill="black"/>
<path d="M83.3784 74.4362V81.7962C83.3784 83.8495 84.3984 84.8762 86.4384 84.8762H92.0984V74.4362H90.1584V83.1762H86.4984C85.7118 83.1762 85.3184 82.7828 85.3184 81.9962V74.4362H83.3784Z" fill="black"/>
<path d="M95.1362 75.6762V84.8762H97.0762V76.5362C97.2896 76.2695 97.6562 76.1362 98.1762 76.1362H100.776V75.1162L99.8562 74.4362H97.7962C96.4896 74.4362 95.6029 74.8495 95.1362 75.6762Z" fill="black"/>
<path d="M102.693 77.4962V81.7962C102.693 83.8495 103.713 84.8762 105.753 84.8762H110.113L111.013 84.1962V83.1762H105.813C105.026 83.1762 104.633 82.7828 104.633 81.9962V80.3762H111.413V77.4962C111.413 75.4562 110.393 74.4362 108.353 74.4362H105.753C103.713 74.4362 102.693 75.4562 102.693 77.4962Z" fill="black"/>
<path d="M113.976 83.1762V84.1962L114.896 84.8762H118.616C120.683 84.8762 121.716 83.8828 121.716 81.8962C121.716 80.2562 120.883 79.2962 119.216 79.0162L116.896 78.6362C116.23 78.5162 115.896 78.0828 115.896 77.3362C115.896 76.5362 116.296 76.1362 117.096 76.1362H121.236V75.1162L120.316 74.4362H117.056C115.003 74.4362 113.976 75.4228 113.976 77.3962C113.976 78.9695 114.823 79.9028 116.516 80.1962L118.816 80.5762C119.456 80.6828 119.776 81.1495 119.776 81.9762C119.776 82.7762 119.383 83.1762 118.596 83.1762H113.976Z" fill="black"/>
<path d="M58.0107 54.5392V62.8762H59.0257V59.5655H61.3818L63.0613 62.8762H63.9191L64.052 62.6345L62.4692 59.5051C63.3633 59.3601 63.8104 58.7641 63.8104 57.7169V56.3878C63.8104 55.1554 63.1942 54.5392 61.9618 54.5392H58.0107Z" fill="black"/>
<path d="M65.5219 58.4057V61.0638C65.5219 62.2721 66.126 62.8762 67.3343 62.8762H69.9924L70.4757 62.5137V62.0304H67.3343C66.7704 62.0304 66.4885 61.7485 66.4885 61.1846V60.1093H70.7174V58.4057C70.7174 57.1974 70.1133 56.5933 68.905 56.5933H67.3343C66.126 56.5933 65.5219 57.1974 65.5219 58.4057Z" fill="black"/>
<path d="M72.4599 58.4056V61.0638C72.4599 62.272 73.064 62.8762 74.2723 62.8762H77.6554V53.9351H76.6888V56.5932H74.2723C73.064 56.5932 72.4599 57.1974 72.4599 58.4056Z" fill="black"/>
<path d="M82.4917 56.3878V61.0275C82.4917 62.26 83.1079 62.8762 84.3403 62.8762H87.7476L88.2913 62.4533V61.9579H84.3282C83.7805 61.9579 83.5066 61.684 83.5066 61.1363V56.2791C83.5066 55.7313 83.7805 55.4575 84.3282 55.4575H88.2913V54.9621L87.7476 54.5392H84.3403C83.1079 54.5392 82.4917 55.1554 82.4917 56.3878Z" fill="black"/>
<path d="M89.528 61.0517C89.528 62.2681 90.1362 62.8762 91.3525 62.8762H94.5302V58.4057C94.5302 57.1974 93.9261 56.5933 92.7178 56.5933H90.6154L90.1321 56.9557V57.439H92.7178C93.2817 57.439 93.5636 57.721 93.5636 58.2848V59.2273H91.3525C90.1362 59.2273 89.528 59.8354 89.528 61.0517Z" fill="black"/>
<path d="M96.3667 54.5392V61.0638C96.3667 62.272 96.9708 62.8762 98.179 62.8762H99.2665L99.7498 62.5137V62.0304H98.179C97.6152 62.0304 97.3333 61.7485 97.3333 61.1846V57.439H99.629V56.5932H97.3333V54.5392H96.3667Z" fill="black"/>
<defs>
<filter id="filter0_d_538_761" x="3.32271" y="33.4159" width="57.009" height="61.926" filterUnits="userSpaceOnUse" color-interpolation-filters="sRGB">
<feFlood flood-opacity="0" result="BackgroundImageFix"/>
<feColorMatrix in="SourceAlpha" type="matrix" values="0 0 0 0 0 0 0 0 0 0 0 0 0 0 0 0 0 0 127 0" result="hardAlpha"/>
<feOffset dx="-0.60413" dy="0.60413"/>
<feGaussianBlur stdDeviation="0.679646"/>
<feComposite in2="hardAlpha" operator="out"/>
<feColorMatrix type="matrix" values="0 0 0 0 0 0 0 0 0 0 0 0 0 0 0 0 0 0 0.375 0"/>
<feBlend mode="normal" in2="BackgroundImageFix" result="effect1_dropShadow_538_761"/>
<feBlend mode="normal" in="SourceGraphic" in2="effect1_dropShadow_538_761" result="shape"/>
</filter>
</defs>
</svg>
