<svg width="48" height="48" viewBox="0 0 48 48" fill="none" xmlns="http://www.w3.org/2000/svg">
<path d="M14.5333 31.2889C14.0389 31.9481 14.5093 32.8889 15.3333 32.8889H24H32.6667C33.4907 32.8889 33.9611 31.9481 33.4667 31.2889L28.8 25.0667C28.4 24.5333 27.6 24.5333 27.2 25.0667L23.4667 30.0444C23.0667 30.5778 22.2667 30.5778 21.8667 30.0444L19.4667 26.8444C19.0667 26.3111 18.2667 26.3111 17.8667 26.8444L14.5333 31.2889ZM12 40C9.79086 40 8 38.2091 8 36V12C8 9.79086 9.79086 8 12 8H36C38.2091 8 40 9.79086 40 12V36C40 38.2091 38.2091 40 36 40H12Z" fill="black"/>
</svg>
