<svg width="48" height="48" viewBox="0 0 48 48" fill="none" xmlns="http://www.w3.org/2000/svg">
<path d="M23.9956 4C20.2056 4.00769 16.4963 5.09482 13.3017 7.13413L14.0585 8.22929C17.0437 6.33584 20.503 5.33049 24.0371 5.33049C26.3073 5.33049 28.5608 5.7446 30.6813 6.55454L31.2051 5.33132C28.9178 4.45116 26.4879 3.99986 24.0371 4H23.9956ZM32.5855 5.92256L32.0616 7.14578C36.577 9.30034 40.0363 13.1804 41.6578 17.9119L42.9301 17.5294C41.7326 12.1077 38.2734 7.76695 32.5855 5.92256ZM23.9872 6.91044C20.7941 6.91959 17.6591 7.82682 14.9565 9.52901L23.8791 22.419C26.4736 17.7789 28.4277 12.9392 30.0576 8.0081C28.1367 7.28215 26.0911 6.91044 24.0371 6.91044H23.9872ZM26.432 7.65302L28.0203 9.63712L26.8561 10.5726L25.2678 8.58769L26.432 7.65302ZM12.071 7.98565C5.84102 11.3343 4.46563 16.4068 4.17957 21.9616L5.5084 22.0448C6.03976 16.8974 8.6916 12.1991 12.8278 9.07997L12.071 7.98565ZM21.2265 8.57356C21.9083 8.57356 22.5403 8.74985 23.0476 9.08912C23.5548 9.42756 23.9623 9.98304 23.9623 10.6524C23.9623 11.326 23.5548 11.8748 23.0476 12.2158C22.5403 12.5567 21.9083 12.7313 21.2265 12.7313C20.5446 12.7313 19.9126 12.5567 19.4054 12.2158C18.8981 11.8748 18.4907 11.326 18.4907 10.6524C18.4907 9.98304 18.8981 9.42756 19.4054 9.08912C19.9126 8.74985 20.5446 8.57356 21.2265 8.57356ZM31.438 8.59933C29.9162 13.5296 27.9704 18.2861 25.3593 22.7765L31.0388 21.0802C30.7727 20.6727 30.6231 20.1738 30.6231 19.6499C30.6231 18.4025 31.4962 17.255 32.7352 17.255C33.9742 17.255 34.8474 18.4025 34.8474 19.6499C34.8474 19.7497 34.839 19.8495 34.8307 19.9576L40.1444 18.3693C38.6559 14.0868 35.5209 10.5676 31.438 8.59933ZM21.2265 10.0704C20.8107 10.0704 20.4531 10.1901 20.2369 10.3331C20.0207 10.4753 19.9875 10.5868 19.9875 10.6524C19.9875 10.7181 20.0207 10.8296 20.2369 10.9718C20.4531 11.1181 20.8107 11.2345 21.2265 11.2345C21.6422 11.2345 21.9998 11.1181 22.216 10.9718C22.4322 10.8296 22.4655 10.7181 22.4655 10.6524C22.4655 10.5868 22.4322 10.4753 22.216 10.3331C21.9998 10.1901 21.6422 10.0704 21.2265 10.0704ZM13.7258 10.3797C9.98716 13.222 7.5848 17.4795 7.08669 22.1445C12.2956 22.1944 17.4928 22.2942 22.5486 23.1091L20.9604 20.8141L19.422 21.6539L18.7069 20.3401L20.1039 19.575L15.364 12.748L13.4431 14.2697L12.5118 13.0889L14.5075 11.5089L13.7258 10.3797ZM33.151 11.5256L34.1655 13.197L32.8849 13.9787L31.8704 12.3072L33.151 11.5256ZM24.2949 13.4465L24.9435 14.7936L22.4322 15.9827L21.7836 14.6356L24.2949 13.4465ZM13.0107 15.226C14.4243 15.226 15.4721 16.5232 15.4721 17.9701C15.4721 19.417 14.4243 20.7143 13.0107 20.7143C11.5971 20.7143 10.5493 19.417 10.5493 17.9701C10.5493 16.5232 11.5971 15.226 13.0107 15.226ZM37.7911 15.9993L38.0987 18.2944L36.6186 18.494L36.3109 16.1989L37.7911 15.9993ZM13.0107 16.7228C12.5367 16.7228 12.0461 17.2134 12.0461 17.9701C12.0461 18.7269 12.5367 19.2175 13.0107 19.2175C13.4847 19.2175 13.9753 18.7269 13.9753 17.9701C13.9753 17.2134 13.4847 16.7228 13.0107 16.7228ZM32.7352 18.7518C32.4691 18.7518 32.1199 19.0761 32.1199 19.6499C32.1199 20.2237 32.4691 20.548 32.7352 20.548C33.0013 20.548 33.3506 20.2237 33.3506 19.6499C33.3506 19.0761 33.0013 18.7518 32.7352 18.7518ZM43.3625 18.968L42.0819 19.3422C42.4644 20.8473 42.664 22.4023 42.664 23.9573C42.664 27.874 41.4333 31.6908 39.1382 34.8673L40.1859 35.6906C42.664 32.2812 43.9945 28.1733 43.9945 23.9573C43.9945 22.2776 43.7866 20.5979 43.3625 18.968ZM40.5685 19.7996L30.2572 22.8846L31.0887 23.475L30.2239 24.6891L28.4444 23.4251L25.6337 24.265C29.384 27.8324 33.758 30.7262 37.8908 33.8861C39.8699 30.9923 40.5019 27.5164 41.084 23.9573C41.3085 22.5686 40.9094 21.155 40.5685 19.7996ZM4.08561 23.4584C4.07729 23.6247 4.08561 23.791 4.07729 23.9573C3.65486 29.8032 4.83068 35.491 10.9434 39.0251L11.78 37.9857C7.73198 34.4516 5.40945 29.3375 5.41028 23.9573V23.5416L4.08561 23.4584ZM6.99356 23.6413V23.9573C6.99356 25.7868 7.28627 27.5996 7.86254 29.3375L8.77642 27.3833L10.1319 28.0153L8.62424 31.2418C9.61712 33.3456 11.0283 35.2166 12.7695 36.755L22.5403 24.6143L11.8049 23.9407L9.75931 25.978L8.70157 24.9136L9.80089 23.816L6.99356 23.6413ZM37.5582 24.7307C37.7495 24.7224 37.9407 24.7473 38.132 24.8138C38.7307 24.9968 39.1548 25.4874 39.3544 26.0445C39.554 26.5851 39.554 27.2004 39.3627 27.8074C39.1798 28.4062 38.8139 28.9134 38.3482 29.2543C37.8659 29.5787 37.2422 29.745 36.6352 29.5537C36.419 29.4872 36.2277 29.3791 36.0614 29.246L35.4128 29.9861L33.1177 28.007L34.099 26.8761L35.3047 27.9155C35.2216 27.4748 35.2548 27.0091 35.3962 26.5601C35.5874 25.9531 35.945 25.4541 36.419 25.1215C36.7516 24.8887 37.1508 24.739 37.5582 24.7307ZM15.8463 25.188L18.316 26.1194L17.7838 27.5164L15.3141 26.5851L15.8463 25.188ZM24.8853 25.5706L25.326 32.6055C25.7252 32.6887 26.0911 32.8217 26.4154 33.013C26.9725 33.3373 27.4465 33.8944 27.4465 34.6012C27.4465 35.3081 26.9725 35.8652 26.4154 36.1895C26.1576 36.3392 25.8749 36.4556 25.5755 36.5388L25.8499 40.9044C26.7729 40.8047 27.6793 40.63 28.5691 40.3889L28.8602 37.9691L30.3403 38.152L30.1324 39.8733C32.7768 38.8671 35.1218 37.2123 36.9678 35.0669C35.2465 33.7115 33.1926 32.7469 31.7955 31.0006L31.1968 32.672L29.7832 32.1731L30.5482 30.0194C28.2032 28.8552 26.7397 27.0757 24.8853 25.5706ZM23.4135 25.9281L13.9337 37.6863C16.8608 39.8401 20.4032 41.0042 24.0371 41.0042H24.3531L24.0787 36.6635C23.48 36.6219 22.9312 36.4639 22.4738 36.1895C21.9167 35.8652 21.4427 35.3081 21.4427 34.6012C21.4427 33.8944 21.9167 33.3373 22.4738 33.013C22.8646 32.7801 23.3303 32.6305 23.8292 32.5639L23.4135 25.9281ZM37.5998 26.2275C37.5166 26.2192 37.4169 26.2524 37.2838 26.3356C37.1092 26.4603 36.9262 26.7015 36.8265 27.0091C36.735 27.3168 36.7516 27.6162 36.8181 27.8158C36.893 28.0153 36.9928 28.0985 37.0842 28.1234C37.184 28.1567 37.3088 28.1401 37.4834 28.0236C37.6497 27.9072 37.841 27.6661 37.9407 27.3584C38.0322 27.0507 38.0156 26.743 37.9491 26.5518C37.8742 26.3522 37.7744 26.2691 37.683 26.2358C37.658 26.2275 37.6331 26.2275 37.5998 26.2275ZM13.2103 28.7138C13.5678 28.7222 13.9254 28.8053 14.258 28.9633C15.4472 29.5371 16.0292 30.9674 15.4555 32.1565C14.8817 33.3539 13.4015 33.7946 12.2124 33.2209C11.0216 32.6471 10.4445 31.2251 11.0166 30.0277C11.4307 29.1712 12.3039 28.7055 13.2103 28.7138ZM13.1354 30.2023C12.8028 30.2106 12.5034 30.3853 12.3621 30.6763C12.1625 31.1004 12.3538 31.6326 12.861 31.8737C13.3683 32.1149 13.9005 31.932 14.1084 31.5079C14.3079 31.0921 14.1167 30.5599 13.6094 30.3187C13.4514 30.2356 13.2851 30.2023 13.1354 30.2023ZM24.4446 34.0192C23.9457 34.0192 23.4966 34.1522 23.2305 34.3019C22.9644 34.4599 22.9395 34.5763 22.9395 34.6012C22.9395 34.6262 22.9644 34.7426 23.2305 34.9006C23.4966 35.0503 23.9457 35.1833 24.4446 35.1833C24.9435 35.1833 25.3926 35.0503 25.6587 34.9006C25.9248 34.7426 25.9497 34.6262 25.9497 34.6012C25.9497 34.5763 25.9248 34.4599 25.6587 34.3019C25.3926 34.1522 24.9435 34.0192 24.4446 34.0192ZM38.2068 36.0482C35.0968 39.6904 30.7145 41.9938 25.9497 42.4844L26.0329 43.8149C31.3548 44.0893 36.394 42.8752 39.2546 36.8714L38.2068 36.0482ZM17.7589 36.2976L20.0956 36.5138L19.9625 38.0106L17.6258 37.7944L17.7589 36.2976ZM12.9442 38.917L12.1126 39.9565C15.1145 43.6985 19.6133 44.2556 24.0371 43.9147C24.2034 43.898 24.3697 43.9147 24.5361 43.9064L24.4529 42.5759C24.3115 42.5842 24.1785 42.5842 24.0371 42.5842C20.0457 42.5842 16.154 41.2953 12.9442 38.917Z" fill="black"/>
</svg>
