<svg width="48" height="48" viewBox="0 0 48 48" fill="none" xmlns="http://www.w3.org/2000/svg">
<path d="M24.4 20.4L17.2 10.32L20.08 6H28.72L31.6 10.32L24.4 20.4ZM30.7 14.64L28.54 17.7C32.5 19.32 35.2 23.1 35.2 27.6C35.2 30.4643 34.0621 33.2114 32.0368 35.2368C30.0114 37.2621 27.2643 38.4 24.4 38.4C21.5357 38.4 18.7886 37.2621 16.7632 35.2368C14.7379 33.2114 13.6 30.4643 13.6 27.6C13.6 23.1 16.3 19.32 20.26 17.7L18.1 14.64C13.24 16.98 10 21.84 10 27.6C10 31.4191 11.5171 35.0818 14.2177 37.7823C16.9182 40.4829 20.5809 42 24.4 42C28.2191 42 31.8818 40.4829 34.5823 37.7823C37.2829 35.0818 38.8 31.4191 38.8 27.6C38.8 21.84 35.56 16.98 30.7 14.64Z" fill="black"/>
</svg>
