<svg width="49" height="48" viewBox="0 0 49 48" fill="none" xmlns="http://www.w3.org/2000/svg">
<path d="M20.2857 30.8571L32.1486 24L20.2857 17.1429V30.8571ZM46.7086 12.96C47.0057 14.0343 47.2114 15.4743 47.3486 17.3029C47.5086 19.1314 47.5771 20.7086 47.5771 22.08L47.7143 24C47.7143 29.0057 47.3486 32.6857 46.7086 35.04C46.1371 37.0971 44.8114 38.4229 42.7543 38.9943C41.68 39.2914 39.7143 39.4971 36.6971 39.6343C33.7257 39.7943 31.0057 39.8629 28.4914 39.8629L24.8571 40C15.28 40 9.31429 39.6343 6.96 38.9943C4.90286 38.4229 3.57714 37.0971 3.00571 35.04C2.70857 33.9657 2.50286 32.5257 2.36571 30.6971C2.20571 28.8686 2.13714 27.2914 2.13714 25.92L2 24C2 18.9943 2.36571 15.3143 3.00571 12.96C3.57714 10.9029 4.90286 9.57714 6.96 9.00571C8.03429 8.70857 10 8.50286 13.0171 8.36571C15.9886 8.20571 18.7086 8.13714 21.2229 8.13714L24.8571 8C34.4343 8 40.4 8.36571 42.7543 9.00571C44.8114 9.57714 46.1371 10.9029 46.7086 12.96Z" fill="black"/>
</svg>
